<?xml version="1.0" encoding="utf-8"?><!DOCTYPE svg PUBLIC "-//W3C//DTD SVG 1.1//EN" "http://www.w3.org/Graphics/SVG/1.1/DTD/svg11.dtd"><svg id="" width="40" height="40" style="width:40px;height:40px;" version="1.1" xmlns="http://www.w3.org/2000/svg" viewBox="0 0 1024 1024" enable-background="new 0 0 1024 1024" xml:space="preserve"><path fill="#0099FF" d="M696.39 0 l327.61 0 l0 141.34 l-186.27 0 l0 515.74 l-1.87 0 q-9.36 78.63 -68.33 132.45 q-58.97 53.82 -141.34 53.82 q-87.05 0 -148.83 -61.77 q-61.78 -61.78 -61.78 -149.77 q0 -87.99 61.78 -149.29 q61.77 -61.31 148.83 -61.31 q37.44 0 70.2 13.1 l0 -434.31 ZM415.59 178.78 l-206.86 207.79 l-208.73 -207.79 l118.87 0 l0 -178.78 l178.78 0 l0 178.78 l117.94 0 Z"/></svg>