<?xml version="1.0" encoding="utf-8"?><!DOCTYPE svg PUBLIC "-//W3C//DTD SVG 1.1//EN" "http://www.w3.org/Graphics/SVG/1.1/DTD/svg11.dtd"><svg id="" width="64" height="64" style="width:64px;height:64px;" version="1.1" xmlns="http://www.w3.org/2000/svg" viewBox="0 0 1024 1024" enable-background="new 0 0 1024 1024" xml:space="preserve"><path fill="#F7A4B9" d="M696.93 0 l327.07 0 l0 140.48 l-186.58 0 l0 515.85 l-2.2 0 q-8.78 79.02 -68.05 132.8 q-59.26 53.78 -140.48 53.78 q-87.8 0 -149.26 -61.47 q-61.46 -61.46 -61.46 -149.26 q0 -87.8 61.46 -149.27 q61.46 -61.46 149.26 -61.46 q37.32 0 70.24 13.17 l0 -434.62 ZM415.97 178.9 l-207.44 207.43 l-208.53 -207.43 l118.53 0 l0 -178.9 l178.9 0 l0 178.9 l118.54 0 Z"/></svg>